<?xml version="1.0" encoding="UTF-8" standalone="no"?><!DOCTYPE svg PUBLIC "-//W3C//DTD SVG 1.1//EN" "http://www.w3.org/Graphics/SVG/1.1/DTD/svg11.dtd"><svg width="100%" height="100%" viewBox="0 0 2253 2250" version="1.1" xmlns="http://www.w3.org/2000/svg" xmlns:xlink="http://www.w3.org/1999/xlink" xml:space="preserve" xmlns:serif="http://www.serif.com/" style="fill-rule:evenodd;clip-rule:evenodd;stroke-linecap:round;stroke-linejoin:round;stroke-miterlimit:1.5;"><rect id="Artboard1" x="1.868" y="0" width="2250" height="2250" style="fill:none;"/><rect x="1.868" y="0" width="2250" height="2250" style="fill:#fff;"/><g><rect x="189.368" y="187.5" width="1875" height="1875" style="fill:#fff;stroke:#000;stroke-width:12.5px;"/><circle cx="2064.37" cy="185.575" r="104.167" style="fill:#fff;stroke:#000;stroke-width:12.5px;"/><circle cx="189.368" cy="185.575" r="104.167" style="fill:#fff;stroke:#000;stroke-width:12.5px;"/><circle cx="2064.37" cy="2062.5" r="104.167" style="fill:#fff;stroke:#000;stroke-width:12.5px;"/><circle cx="189.368" cy="2062.5" r="104.167" style="fill:#fff;stroke:#000;stroke-width:12.5px;"/></g><g><circle cx="1126.87" cy="1125" r="937.5" style="fill:#fff;stroke:#000;stroke-width:12.5px;"/><path d="M1126.87,185.575l-939.425,939.425l939.425,939.425l939.425,-939.425l-939.425,-939.425Z" style="fill:#fff;stroke:#000;stroke-width:12.5px;"/><circle cx="1126.87" cy="185.575" r="52.083" style="fill:#fff;stroke:#000;stroke-width:12.5px;"/><circle cx="187.443" cy="1125" r="52.083" style="fill:#fff;stroke:#000;stroke-width:12.5px;"/><circle cx="1126.87" cy="2062.5" r="52.083" style="fill:#fff;stroke:#000;stroke-width:12.5px;"/><circle cx="2066.29" cy="1125" r="52.083" style="fill:#fff;stroke:#000;stroke-width:12.5px;"/></g><g><g><circle cx="1126.87" cy="1125" r="594.383" style="fill:#fff;stroke:#000;stroke-width:12.5px;"/><path d="M1130.24,1125c170.726,0 309.126,-133.057 309.126,-297.191c0,-164.135 -138.4,-297.192 -309.126,-297.192c170.726,0 309.126,133.057 309.126,297.192c0,164.134 -138.4,297.191 -309.126,297.191Z" style="stroke:#000;stroke-width:12.5px;"/><path d="M1123.49,1719.38c-170.725,-0 -309.126,-133.057 -309.126,-297.192c0,-164.134 138.401,-297.191 309.126,-297.191c-170.725,0 -309.126,133.057 -309.126,297.191c0,164.135 138.401,297.192 309.126,297.192Z" style="stroke:#000;stroke-width:12.5px;"/></g><circle cx="1126.87" cy="1719.38" r="104.167" style="fill:#fff;stroke:#000;stroke-width:12.5px;"/><circle cx="1126.87" cy="1125" r="104.167" style="fill:#fff;stroke:#000;stroke-width:12.5px;"/><circle cx="1491.45" cy="669.534" r="52.083" style="fill:#fff;stroke:#000;stroke-width:12.5px;"/><circle cx="1669.17" cy="901.021" r="52.083" style="fill:#fff;stroke:#000;stroke-width:12.5px;"/><circle cx="1693.42" cy="1298.73" r="52.083" style="fill:#fff;stroke:#000;stroke-width:12.5px;"/><circle cx="1488.96" cy="1575.91" r="52.083" style="fill:#fff;stroke:#000;stroke-width:12.5px;"/><circle cx="748.088" cy="669.534" r="52.083" style="fill:#fff;stroke:#000;stroke-width:12.5px;"/><circle cx="532.486" cy="1125" r="52.083" style="fill:#fff;stroke:#000;stroke-width:12.5px;"/><circle cx="748.088" cy="1575.91" r="52.083" style="fill:#fff;stroke:#000;stroke-width:12.5px;"/><circle cx="1126.87" cy="530.617" r="104.167" style="fill:#fff;stroke:#000;stroke-width:12.5px;"/></g><g><rect x="814.368" y="812.5" width="625" height="625" style="fill:none;stroke:#000;stroke-width:12.5px;"/><circle cx="1439.37" cy="1428.94" r="78.125" style="fill:#fff;stroke:#000;stroke-width:12.5px;"/><circle cx="814.368" cy="1428.94" r="78.125" style="fill:#fff;stroke:#000;stroke-width:12.5px;"/><circle cx="814.368" cy="812.5" r="78.125" style="fill:#fff;stroke:#000;stroke-width:12.5px;"/><circle cx="1439.37" cy="812.5" r="78.125" style="fill:#fff;stroke:#000;stroke-width:12.5px;"/></g></svg>