<?xml version="1.0" encoding="UTF-8" standalone="no"?><!DOCTYPE svg PUBLIC "-//W3C//DTD SVG 1.1//EN" "http://www.w3.org/Graphics/SVG/1.1/DTD/svg11.dtd"><svg width="100%" height="100%" viewBox="0 0 2250 2250" version="1.1" xmlns="http://www.w3.org/2000/svg" xmlns:xlink="http://www.w3.org/1999/xlink" xml:space="preserve" xmlns:serif="http://www.serif.com/" style="fill-rule:evenodd;clip-rule:evenodd;stroke-linecap:round;stroke-linejoin:round;stroke-miterlimit:1.5;"><rect id="Artboard1" x="0" y="0" width="2250" height="2250" style="fill:none;"/><g id="Artboard11" serif:id="Artboard1"><rect x="0" y="0" width="2250" height="2250" style="fill:#fff;"/><g><rect x="187.5" y="187.5" width="1875" height="1875" style="fill:#fff;stroke:#000;stroke-width:12.5px;"/><circle cx="2062.5" cy="185.575" r="104.167" style="fill:#fff;stroke:#000;stroke-width:12.5px;"/><circle cx="187.5" cy="185.575" r="104.167" style="fill:#fff;stroke:#000;stroke-width:12.5px;"/><circle cx="2062.5" cy="2062.5" r="104.167" style="fill:#fff;stroke:#000;stroke-width:12.5px;"/><circle cx="187.5" cy="2062.5" r="104.167" style="fill:#fff;stroke:#000;stroke-width:12.5px;"/></g><g><circle cx="1125" cy="1125" r="937.5" style="fill:#fff;stroke:#000;stroke-width:12.5px;"/><path d="M1125,185.575l-939.425,939.425l939.425,939.425l939.425,-939.425l-939.425,-939.425Z" style="fill:#fff;stroke:#000;stroke-width:12.5px;"/><circle cx="1125" cy="185.575" r="52.083" style="fill:#fff;stroke:#000;stroke-width:12.5px;"/><circle cx="185.575" cy="1125" r="52.083" style="fill:#fff;stroke:#000;stroke-width:12.5px;"/><circle cx="1125" cy="2062.5" r="52.083" style="fill:#fff;stroke:#000;stroke-width:12.5px;"/><circle cx="2064.43" cy="1125" r="52.083" style="fill:#fff;stroke:#000;stroke-width:12.5px;"/></g><g><rect x="812.5" y="812.5" width="625" height="625" style="fill:#fff;stroke:#000;stroke-width:12.5px;"/><circle cx="1437.5" cy="1428.94" r="78.125" style="fill:#fff;stroke:#000;stroke-width:12.5px;"/><circle cx="812.5" cy="1428.94" r="78.125" style="fill:#fff;stroke:#000;stroke-width:12.5px;"/><circle cx="812.5" cy="812.5" r="78.125" style="fill:#fff;stroke:#000;stroke-width:12.5px;"/><circle cx="1437.5" cy="812.5" r="78.125" style="fill:#fff;stroke:#000;stroke-width:12.5px;"/></g><g><g><circle cx="1125" cy="1125" r="594.383" style="fill:#fff;stroke:#000;stroke-width:12.5px;"/><path d="M1128.37,1125c170.726,0 309.126,-133.057 309.126,-297.191c-0,-164.135 -138.4,-297.192 -309.126,-297.192c170.726,0 309.126,133.057 309.126,297.192c-0,164.134 -138.4,297.191 -309.126,297.191Z" style="stroke:#000;stroke-width:12.5px;"/><path d="M1121.63,1719.38c-170.726,-0 -309.126,-133.057 -309.126,-297.192c0,-164.134 138.4,-297.191 309.126,-297.191c-170.726,0 -309.126,133.057 -309.126,297.191c0,164.135 138.4,297.192 309.126,297.192Z" style="stroke:#000;stroke-width:12.5px;"/></g><circle cx="1125" cy="1719.38" r="104.167" style="fill:#fff;stroke:#000;stroke-width:12.5px;"/><circle cx="1125" cy="1125" r="104.167" style="fill:#fff;stroke:#000;stroke-width:12.5px;"/><circle cx="1489.58" cy="669.534" r="52.083" style="fill:#fff;stroke:#000;stroke-width:12.5px;"/><circle cx="1667.3" cy="901.021" r="52.083" style="fill:#fff;stroke:#000;stroke-width:12.5px;"/><circle cx="1691.55" cy="1298.73" r="52.083" style="fill:#fff;stroke:#000;stroke-width:12.5px;"/><circle cx="1487.1" cy="1575.91" r="52.083" style="fill:#fff;stroke:#000;stroke-width:12.5px;"/><circle cx="746.219" cy="669.534" r="52.083" style="fill:#fff;stroke:#000;stroke-width:12.5px;"/><circle cx="530.617" cy="1125" r="52.083" style="fill:#fff;stroke:#000;stroke-width:12.5px;"/><circle cx="746.219" cy="1575.91" r="52.083" style="fill:#fff;stroke:#000;stroke-width:12.5px;"/><circle cx="1125" cy="530.617" r="104.167" style="fill:#fff;stroke:#000;stroke-width:12.5px;"/></g></g></svg>