<?xml version="1.0" encoding="UTF-8" standalone="no"?><!DOCTYPE svg PUBLIC "-//W3C//DTD SVG 1.1//EN" "http://www.w3.org/Graphics/SVG/1.1/DTD/svg11.dtd"><svg width="100%" height="100%" viewBox="0 0 2253 2250" version="1.1" xmlns="http://www.w3.org/2000/svg" xmlns:xlink="http://www.w3.org/1999/xlink" xml:space="preserve" xmlns:serif="http://www.serif.com/" style="fill-rule:evenodd;clip-rule:evenodd;stroke-linecap:round;stroke-linejoin:round;stroke-miterlimit:1.5;"><rect id="Artboard1" x="0.398" y="0" width="2250" height="2250" style="fill:none;"/><rect x="0.398" y="0" width="2250" height="2250" style="fill:#fff;"/><g><rect x="187.898" y="187.5" width="1875" height="1875" style="fill:#fff;stroke:#000;stroke-width:12.5px;"/><circle cx="2062.9" cy="185.575" r="104.167" style="fill:#fff;stroke:#000;stroke-width:12.5px;"/><circle cx="187.898" cy="185.575" r="104.167" style="fill:#fff;stroke:#000;stroke-width:12.5px;"/><circle cx="2062.9" cy="2062.5" r="104.167" style="fill:#fff;stroke:#000;stroke-width:12.5px;"/><circle cx="187.898" cy="2062.5" r="104.167" style="fill:#fff;stroke:#000;stroke-width:12.5px;"/></g><g><g><circle cx="1125.4" cy="1125" r="937.5" style="fill:#fff;stroke:#000;stroke-width:12.5px;"/><path d="M1130.72,1125c269.28,0 487.575,-209.867 487.575,-468.75c-0,-258.883 -218.295,-468.75 -487.575,-468.75c269.28,0 487.575,209.867 487.575,468.75c-0,258.883 -218.295,468.75 -487.575,468.75Z" style="stroke:#000;stroke-width:12.5px;"/><path d="M1120.08,2062.5c-269.28,0 -487.574,-209.867 -487.574,-468.75c-0,-258.883 218.294,-468.75 487.574,-468.75c-269.28,0 -487.574,209.867 -487.574,468.75c-0,258.883 218.294,468.75 487.574,468.75Z" style="stroke:#000;stroke-width:12.5px;"/></g><path d="M1125.4,185.575l-939.425,939.425l939.425,939.425l939.425,-939.425l-939.425,-939.425Z" style="fill:none;stroke:#000;stroke-width:12.5px;"/><circle cx="1125.4" cy="185.575" r="52.083" style="fill:#fff;stroke:#000;stroke-width:12.5px;"/><circle cx="185.973" cy="1125" r="52.083" style="fill:#fff;stroke:#000;stroke-width:12.5px;"/><circle cx="1125.4" cy="2062.5" r="52.083" style="fill:#fff;stroke:#000;stroke-width:12.5px;"/><circle cx="2064.82" cy="1125" r="52.083" style="fill:#fff;stroke:#000;stroke-width:12.5px;"/></g><g><g><circle cx="1125.4" cy="1125" r="594.383" style="fill:none;stroke:#000;stroke-width:12.5px;"/></g><circle cx="1125.4" cy="1719.38" r="104.167" style="fill:#fff;stroke:#000;stroke-width:12.5px;"/><circle cx="1125.4" cy="2062.5" r="104.167" style="fill:#fff;stroke:#000;stroke-width:12.5px;"/><circle cx="1125.4" cy="1125" r="104.167" style="fill:#fff;stroke:#000;stroke-width:12.5px;"/><circle cx="1489.98" cy="669.534" r="52.083" style="fill:#fff;stroke:#000;stroke-width:12.5px;"/><circle cx="1667.7" cy="901.021" r="52.083" style="fill:#fff;stroke:#000;stroke-width:12.5px;"/><circle cx="1691.95" cy="1298.73" r="52.083" style="fill:#fff;stroke:#000;stroke-width:12.5px;"/><circle cx="1487.49" cy="1575.91" r="52.083" style="fill:#fff;stroke:#000;stroke-width:12.5px;"/><circle cx="746.617" cy="669.534" r="52.083" style="fill:#fff;stroke:#000;stroke-width:12.5px;"/><circle cx="531.015" cy="1125" r="52.083" style="fill:#fff;stroke:#000;stroke-width:12.5px;"/><circle cx="746.617" cy="1575.91" r="52.083" style="fill:#fff;stroke:#000;stroke-width:12.5px;"/><circle cx="1125.4" cy="530.617" r="104.167" style="fill:#fff;stroke:#000;stroke-width:12.5px;"/><circle cx="1125.4" cy="187.5" r="104.167" style="fill:#fff;stroke:#000;stroke-width:12.5px;"/></g><g><rect x="812.898" y="812.5" width="625" height="625" style="fill:none;stroke:#000;stroke-width:12.5px;"/><circle cx="1437.9" cy="1428.94" r="78.125" style="fill:#fff;stroke:#000;stroke-width:12.5px;"/><circle cx="812.898" cy="1428.94" r="78.125" style="fill:#fff;stroke:#000;stroke-width:12.5px;"/><circle cx="812.898" cy="812.5" r="78.125" style="fill:#fff;stroke:#000;stroke-width:12.5px;"/><circle cx="1437.9" cy="812.5" r="78.125" style="fill:#fff;stroke:#000;stroke-width:12.5px;"/></g></svg>