<?xml version="1.0" encoding="UTF-8" standalone="no"?><!DOCTYPE svg PUBLIC "-//W3C//DTD SVG 1.1//EN" "http://www.w3.org/Graphics/SVG/1.1/DTD/svg11.dtd"><svg width="100%" height="100%" viewBox="0 0 2253 2250" version="1.1" xmlns="http://www.w3.org/2000/svg" xmlns:xlink="http://www.w3.org/1999/xlink" xml:space="preserve" xmlns:serif="http://www.serif.com/" style="fill-rule:evenodd;clip-rule:evenodd;stroke-linecap:round;stroke-linejoin:round;stroke-miterlimit:1.5;"><rect id="Artboard1" x="1.627" y="0" width="2250" height="2250" style="fill:none;"/><rect x="1.627" y="0" width="2250" height="2250" style="fill:#fff;"/><g><rect x="189.127" y="187.5" width="1875" height="1875" style="fill:#fff;stroke:#000;stroke-width:12.5px;"/><circle cx="2064.13" cy="185.575" r="104.167" style="fill:#fff;stroke:#000;stroke-width:12.5px;"/><circle cx="189.127" cy="185.575" r="104.167" style="fill:#fff;stroke:#000;stroke-width:12.5px;"/><circle cx="2064.13" cy="2062.5" r="104.167" style="fill:#fff;stroke:#000;stroke-width:12.5px;"/><circle cx="189.127" cy="2062.5" r="104.167" style="fill:#fff;stroke:#000;stroke-width:12.5px;"/></g><g><path d="M543.224,541.597c342.746,-342.746 900.545,-341.48 1244.85,2.826c344.306,344.306 345.572,902.105 2.826,1244.85c-342.746,342.746 -900.545,341.48 -1244.85,-2.826c-344.306,-344.306 -345.572,-902.105 -2.826,-1244.85Z" style="fill:none;stroke:#000;stroke-width:12.5px;"/><path d="M543.224,541.597l1439.53,288.975l-1150.56,1150.56l-288.975,-1439.53Z" style="fill:none;stroke:#000;stroke-width:12.5px;"/><path d="M751.328,1900.26c41.689,-41.689 111.772,-39.298 156.406,5.336c44.634,44.634 47.025,114.717 5.336,156.406c-41.689,41.689 -111.772,39.298 -156.406,-5.336c-44.634,-44.634 -47.025,-114.717 -5.336,-156.406Z" style="fill:#fff;stroke:#000;stroke-width:12.5px;"/><path d="M1901.88,749.701c41.689,-41.689 111.772,-39.298 156.406,5.336c44.634,44.634 47.025,114.717 5.336,156.406c-41.689,41.689 -111.772,39.298 -156.406,-5.336c-44.634,-44.634 -47.025,-114.717 -5.336,-156.406Z" style="fill:#fff;stroke:#000;stroke-width:12.5px;"/><path d="M462.353,460.726c41.689,-41.689 111.772,-39.298 156.406,5.336c44.634,44.634 47.025,114.717 5.336,156.406c-41.689,41.689 -111.772,39.298 -156.406,-5.336c-44.634,-44.634 -47.025,-114.717 -5.336,-156.406Z" style="fill:#fff;stroke:#000;stroke-width:12.5px;"/></g><g><path d="M1126.63,335.441l-789.559,789.559l789.559,789.559l789.559,-789.559l-789.559,-789.559Z" style="fill:none;stroke:#000;stroke-width:12.5px;"/><circle cx="1126.63" cy="335.441" r="43.774" style="fill:#fff;stroke:#000;stroke-width:12.5px;"/><circle cx="337.068" cy="1125" r="43.774" style="fill:#fff;stroke:#000;stroke-width:12.5px;"/><circle cx="1126.63" cy="1912.94" r="43.774" style="fill:#fff;stroke:#000;stroke-width:12.5px;"/><circle cx="1916.19" cy="1125" r="43.774" style="fill:#fff;stroke:#000;stroke-width:12.5px;"/></g><g><g><path d="M724.589,723.876c221.638,-221.639 581.524,-221.639 803.162,-0c221.639,221.638 221.639,581.524 0,803.162c-221.638,221.639 -581.524,221.639 -803.162,0c-221.639,-221.638 -221.639,-581.524 -0,-803.162Z" style="fill:none;stroke:#000;stroke-width:12.5px;"/><path d="M1128.45,1123.18c115.347,-115.347 118.958,-298.752 8.064,-409.645c-110.894,-110.894 -294.298,-107.284 -409.645,8.063c115.347,-115.347 298.751,-118.957 409.645,-8.063c110.894,110.893 107.283,294.298 -8.064,409.645Z" style="stroke:#000;stroke-width:12.5px;"/><path d="M1525.47,1529.32c-115.347,115.347 -298.751,118.957 -409.645,8.063c-110.894,-110.893 -107.283,-294.298 8.064,-409.645c-115.347,115.347 -118.958,298.752 -8.064,409.645c110.894,110.894 294.298,107.284 409.645,-8.063Z" style="stroke:#000;stroke-width:12.5px;"/></g><path d="M1456.7,1455.99c38.764,-38.764 101.708,-38.764 140.472,0c38.764,38.764 38.764,101.708 -0,140.472c-38.764,38.764 -101.708,38.764 -140.472,-0c-38.764,-38.764 -38.764,-101.708 0,-140.472Z" style="fill:#fff;stroke:#000;stroke-width:12.5px;"/><path d="M1055.93,1055.22c38.764,-38.764 101.708,-38.764 140.472,0c38.764,38.764 38.764,101.708 -0,140.472c-38.764,38.764 -101.708,38.764 -140.472,-0c-38.764,-38.764 -38.764,-101.708 0,-140.472Z" style="fill:#fff;stroke:#000;stroke-width:12.5px;"/><path d="M1029.77,537.409c19.383,-19.382 50.854,-19.382 70.236,0c19.382,19.382 19.382,50.854 0,70.236c-19.382,19.382 -50.853,19.382 -70.236,0c-19.382,-19.382 -19.382,-50.854 0,-70.236Z" style="fill:#fff;stroke:#000;stroke-width:12.5px;"/><path d="M1356.08,564.899c19.383,-19.383 50.854,-19.383 70.236,-0c19.382,19.382 19.382,50.853 0,70.235c-19.382,19.383 -50.853,19.383 -70.236,0c-19.382,-19.382 -19.382,-50.853 0,-70.235Z" style="fill:#fff;stroke:#000;stroke-width:12.5px;"/><path d="M1564.26,787.189c19.382,-19.382 50.853,-19.382 70.236,-0c19.382,19.382 19.382,50.854 -0,70.236c-19.383,19.382 -50.854,19.382 -70.236,-0c-19.382,-19.382 -19.382,-50.854 -0,-70.236Z" style="fill:#fff;stroke:#000;stroke-width:12.5px;"/><path d="M1639.23,1150.22c19.382,-19.382 50.854,-19.382 70.236,0c19.382,19.382 19.382,50.854 -0,70.236c-19.382,19.382 -50.854,19.382 -70.236,0c-19.382,-19.382 -19.382,-50.854 0,-70.236Z" style="fill:#fff;stroke:#000;stroke-width:12.5px;"/><path d="M528.55,1038.63c19.382,-19.382 50.853,-19.382 70.236,0c19.382,19.382 19.382,50.854 -0,70.236c-19.383,19.382 -50.854,19.382 -70.236,0c-19.382,-19.382 -19.382,-50.854 -0,-70.236Z" style="fill:#fff;stroke:#000;stroke-width:12.5px;"/><path d="M690.281,1491.11c19.382,-19.382 50.854,-19.382 70.236,0c19.382,19.382 19.382,50.854 -0,70.236c-19.382,19.382 -50.854,19.382 -70.236,-0c-19.382,-19.382 -19.382,-50.854 0,-70.236Z" style="fill:#fff;stroke:#000;stroke-width:12.5px;"/><path d="M1139.69,1649.77c19.382,-19.382 50.854,-19.382 70.236,0c19.382,19.383 19.382,50.854 -0,70.236c-19.382,19.382 -50.854,19.382 -70.236,0c-19.382,-19.382 -19.382,-50.853 -0,-70.236Z" style="fill:#fff;stroke:#000;stroke-width:12.5px;"/><path d="M655.163,654.45c38.764,-38.764 101.708,-38.764 140.472,0c38.764,38.764 38.764,101.708 -0,140.472c-38.764,38.764 -101.708,38.764 -140.472,-0c-38.764,-38.764 -38.764,-101.708 0,-140.472Z" style="fill:#fff;stroke:#000;stroke-width:12.5px;"/></g><g><path d="M1126.63,683.058l-441.942,441.942l441.942,441.942l441.942,-441.942l-441.942,-441.942Z" style="fill:none;stroke:#000;stroke-width:12.5px;"/><path d="M1507.27,1063.7c30.489,-30.489 79.996,-30.489 110.485,0c30.49,30.49 30.49,79.996 0,110.486c-30.489,30.489 -79.996,30.489 -110.485,-0c-30.489,-30.49 -30.489,-79.996 0,-110.486Z" style="fill:#fff;stroke:#000;stroke-width:12.5px;"/><path d="M1065.33,1505.65c30.49,-30.489 79.996,-30.489 110.486,-0c30.489,30.489 30.489,79.996 -0,110.485c-30.49,30.49 -79.996,30.49 -110.486,0c-30.489,-30.489 -30.489,-79.996 0,-110.485Z" style="fill:#fff;stroke:#000;stroke-width:12.5px;"/><path d="M629.443,1069.76c30.489,-30.489 79.996,-30.489 110.485,0c30.489,30.49 30.489,79.996 0,110.486c-30.489,30.489 -79.996,30.489 -110.485,-0c-30.49,-30.49 -30.49,-79.996 -0,-110.486Z" style="fill:#fff;stroke:#000;stroke-width:12.5px;"/><path d="M1071.38,627.816c30.49,-30.49 79.996,-30.49 110.486,-0c30.489,30.489 30.489,79.996 -0,110.485c-30.49,30.489 -79.996,30.489 -110.486,-0c-30.489,-30.489 -30.489,-79.996 0,-110.485Z" style="fill:#fff;stroke:#000;stroke-width:12.5px;"/></g></svg>