<?xml version="1.0" encoding="UTF-8" standalone="no"?>
<!DOCTYPE svg PUBLIC "-//W3C//DTD SVG 1.1//EN" "http://www.w3.org/Graphics/SVG/1.1/DTD/svg11.dtd">
<svg width="100%" height="100%" viewBox="0 0 2481 3508" version="1.1" xmlns="http://www.w3.org/2000/svg" xmlns:xlink="http://www.w3.org/1999/xlink" xml:space="preserve" xmlns:serif="http://www.serif.com/" style="fill-rule:evenodd;clip-rule:evenodd;stroke-linecap:round;stroke-linejoin:round;stroke-miterlimit:1.5;">
    <rect id="Artboard1" x="0" y="0" width="2480.32" height="3507.87" style="fill:none;"/>
    <g id="Artboard11" serif:id="Artboard1">
        <g transform="matrix(1.57056,0,0,1.57056,-706.083,-1000.72)">
            <g transform="matrix(1,0,0,1,1.36492,-0.542723)">
                <g transform="matrix(1.41593,0,0,1.41593,-511.627,-687.668)">
                    <circle cx="1306.42" cy="1655.92" r="69.223" style="fill:none;stroke:black;stroke-width:1.87px;"/>
                </g>
                <g transform="matrix(1.41593,0,0,1.41593,-710.386,-688.753)">
                    <circle cx="1306.42" cy="1655.92" r="69.223" style="fill:none;stroke:black;stroke-width:1.87px;"/>
                </g>
                <g transform="matrix(1.41593,0,0,1.41593,-710.386,-491.639)">
                    <circle cx="1306.42" cy="1655.92" r="69.223" style="fill:none;stroke:black;stroke-width:1.87px;"/>
                </g>
                <g transform="matrix(1.41593,0,0,1.41593,-511.627,-491.639)">
                    <circle cx="1306.42" cy="1655.92" r="69.223" style="fill:none;stroke:black;stroke-width:1.87px;"/>
                </g>
            </g>
            <g>
                <g transform="matrix(1.41593,0,0,1.41593,-174.02,-590.739)">
                    <circle cx="1306.42" cy="1655.92" r="69.223" style="fill:none;stroke:black;stroke-width:1.87px;"/>
                </g>
                <g transform="matrix(1.41593,0,0,1.41593,23.9185,-590.739)">
                    <circle cx="1306.42" cy="1655.92" r="69.223" style="fill:none;stroke:black;stroke-width:1.87px;"/>
                </g>
                <g transform="matrix(1.41593,0,0,1.41593,-609.642,-155.668)">
                    <circle cx="1306.42" cy="1655.92" r="69.223" style="fill:none;stroke:black;stroke-width:1.87px;"/>
                </g>
                <g transform="matrix(1.41593,0,0,1.41593,-609.642,40.3612)">
                    <circle cx="1306.42" cy="1655.92" r="69.223" style="fill:none;stroke:black;stroke-width:1.87px;"/>
                </g>
                <g transform="matrix(1.41593,0,0,1.41593,-1045.26,-591.281)">
                    <circle cx="1306.42" cy="1655.92" r="69.223" style="fill:none;stroke:black;stroke-width:1.87px;"/>
                </g>
                <g transform="matrix(1.41593,0,0,1.41593,-1243.2,-590.739)">
                    <circle cx="1306.42" cy="1655.92" r="69.223" style="fill:none;stroke:black;stroke-width:1.87px;"/>
                </g>
                <g transform="matrix(1.41593,0,0,1.41593,-609.642,-1025)">
                    <circle cx="1306.42" cy="1655.92" r="69.223" style="fill:none;stroke:black;stroke-width:1.87px;"/>
                </g>
                <g transform="matrix(1.41593,0,0,1.41593,-609.642,-1221.84)">
                    <circle cx="1306.42" cy="1655.92" r="69.223" style="fill:none;stroke:black;stroke-width:1.87px;"/>
                </g>
            </g>
            <g transform="matrix(0.960284,0,0,0.960284,51.875,69.6587)">
                <circle cx="1237.43" cy="1753.94" r="41.879" style="stroke:black;stroke-width:2.76px;"/>
            </g>
            <g transform="matrix(0.993563,-0.993563,0.993563,0.993563,-1731.95,1240.75)">
                <rect x="1068.22" y="1584.73" width="338.421" height="338.421" style="fill:none;stroke:black;stroke-width:1.89px;"/>
            </g>
            <g transform="matrix(0.993563,-0.993563,0.993563,0.993563,-1731.95,1240.75)">
                <rect x="1068.22" y="1584.73" width="338.421" height="338.421" style="fill:none;stroke:black;stroke-width:1.89px;"/>
            </g>
            <g transform="matrix(1,0,0,1,2.18797,0.543578)">
                <path d="M902.271,1752.85L1573.67,1753.93" style="fill:none;stroke:black;stroke-width:2.65px;"/>
            </g>
            <g transform="matrix(1,0,0,1,2.72983,-0.814084)">
                <path d="M1237.43,1419.32L1237.43,2090.18" style="fill:none;stroke:black;stroke-width:2.65px;"/>
            </g>
            <g transform="matrix(1,0,0,1.00485,2.18711,-9.59744)">
                <circle cx="1237.97" cy="1755.02" r="335.7" style="fill:none;stroke:black;stroke-width:2.65px;"/>
            </g>
            <g transform="matrix(1.58962,0,0,1.58798,-727.747,-1033.01)">
                <circle cx="1237.97" cy="1755.02" r="335.7" style="fill:none;stroke:black;stroke-width:1.67px;"/>
            </g>
            <g transform="matrix(2.18209,0,0,2.17193,-1462.16,-2057.84)">
                <circle cx="1237.97" cy="1755.02" r="335.7" style="fill:none;stroke:black;stroke-width:1.22px;"/>
            </g>
        </g>
    </g>
</svg>
