<?xml version="1.0" encoding="UTF-8" standalone="no"?>
<!DOCTYPE svg PUBLIC "-//W3C//DTD SVG 1.1//EN" "http://www.w3.org/Graphics/SVG/1.1/DTD/svg11.dtd">
<svg width="100%" height="100%" viewBox="0 0 2481 3508" version="1.1" xmlns="http://www.w3.org/2000/svg" xmlns:xlink="http://www.w3.org/1999/xlink" xml:space="preserve" xmlns:serif="http://www.serif.com/" style="fill-rule:evenodd;clip-rule:evenodd;stroke-linecap:round;stroke-linejoin:round;stroke-miterlimit:1.5;">
    <g transform="matrix(1,0,0,1,-5376,0)">
        <g id="Artboard3" transform="matrix(1,0,0,1,-0.648294,0)">
            <rect x="5376.65" y="0" width="2480.32" height="3507.87" style="fill:none;"/>
            <g transform="matrix(1.89107,0,0,1.89107,-5896.01,-1562.87)">
                <g transform="matrix(1,0,0,1,0.648294,-1086.95)">
                    <rect x="6010.62" y="2235.35" width="1211.08" height="1211.08" style="fill:none;stroke:black;stroke-width:2.2px;"/>
                </g>
                <g transform="matrix(1,0,0,1,0.648294,0)">
                    <path d="M7221.7,1148.4L6010.62,2359.48" style="fill:none;stroke:black;stroke-width:2.2px;"/>
                </g>
                <g transform="matrix(-1.83697e-16,1,-1,-1.83697e-16,8370.74,-4862.22)">
                    <path d="M7221.7,1148.4L6010.62,2359.48" style="fill:none;stroke:black;stroke-width:2.2px;"/>
                </g>
                <g transform="matrix(1.01006,0,0,1.01794,-65.912,-29.9034)">
                    <rect x="6417.36" y="1157.53" width="397.604" height="397.604" style="fill:none;stroke:black;stroke-width:2.17px;"/>
                </g>
                <g transform="matrix(6.18484e-17,-1.01006,1.01794,6.2331e-17,4832.97,8436.65)">
                    <rect x="6417.36" y="1157.53" width="397.604" height="397.604" style="fill:none;stroke:black;stroke-width:2.17px;"/>
                </g>
                <g transform="matrix(-1.01006,-1.23697e-16,1.24662e-16,-1.01794,13299.5,3537.78)">
                    <rect x="6417.36" y="1157.53" width="397.604" height="397.604" style="fill:none;stroke:black;stroke-width:2.17px;"/>
                </g>
                <g transform="matrix(-1.85545e-16,1.01006,-1.01794,-1.86993e-16,8400.65,-4928.78)">
                    <rect x="6417.36" y="1157.53" width="397.604" height="397.604" style="fill:none;stroke:black;stroke-width:2.17px;"/>
                </g>
                <g transform="matrix(1,0,0,1,0.648294,0)">
                    <circle cx="7019.33" cy="1753.94" r="200.802" style="fill:none;stroke:black;stroke-width:2.2px;"/>
                </g>
                <g transform="matrix(1,0,0,1,0.648294,0)">
                    <circle cx="6616.16" cy="1350.77" r="200.802" style="fill:none;stroke:black;stroke-width:2.2px;"/>
                </g>
                <g transform="matrix(1,0,0,1,0.648294,0)">
                    <circle cx="6212.99" cy="1753.94" r="200.802" style="fill:none;stroke:black;stroke-width:2.2px;"/>
                </g>
                <g transform="matrix(1,0,0,1,0.648294,0)">
                    <circle cx="6616.16" cy="2157.11" r="200.802" style="fill:none;stroke:black;stroke-width:2.2px;"/>
                </g>
            </g>
        </g>
    </g>
</svg>
